<?xml version="1.0" standalone="no"?>
<svg version="1.0" xmlns="http://www.w3.org/2000/svg">
<g fill="#000000" stroke="#000000">
<path d="m 6,130 c -1.64629,-2.25086 -0.710695,-13.62472 1.843433,-10.96781 15.290746,15.90607 55.879555,-42.87412 55.141755,-44.38005 -28.921937,-59.03278 -30.489527,-61.91432 -47.934072,-61.68466 0,0 -0.0014,-0.002 -0.04836,-7.97476 l 29.66023,-0.002 c 0.406494,22.3188 20.147584,53.76251 23.898879,60.52612 0.784556,1.41456 22.680818,-44.10846 36.691328,-52.0094 7.85728,-4.43094 18.20931,-3.02766 18.18974,-2.93335 l -2.70895,13.05441 -3.46977,0.0176 c -8.31353,-25.80894 -38.85074,31.11494 -46.498458,45.50079 11.793168,19.922 24.711778,47.14126 50.478018,48.62396 0,0 -3.79117,8.89305 -3.88269,10.56496 l -36.62581,-0.047 c 0.005,-0.0725 0.0104,-0.0443 -0.0102,-7.28262 -0.002,-0.76642 0.95269,-4.8815 0.95269,-5.46644 0,-4.75945 -15.875705,-36.96642 -16.560195,-37.18215 -12.414385,22.06723 -50.782746,63.03833 -59.117568,51.64269 z"/>
</g></svg>